<svg width="112" height="50" fill="none" xmlns="http://www.w3.org/2000/svg"><path d="M37.208 2.648c-1.51-.21-5.598-.229-5.673-.229-4.38-.115-6.874.497-7.291 1.51-.574 1.39-.342 3.274-.087 4.701.3 1.69.96 3.432 2.707 4.076.536.2 1.108.263 1.679.308 1.418.114 2.848.124 4.27-.002.655-.058 1.314-.144 1.942-.343 2.69-.85 3.82-3.363 4.307-5.93.363-1.92-.345-3.876-1.855-4.09h.001zM46.74 6.74c.487 2.566 1.617 5.08 4.307 5.93.628.198 1.287.284 1.943.341 1.42.127 2.851.117 4.272.003.568-.045 1.14-.108 1.676-.308 1.748-.644 2.41-2.387 2.709-4.076.253-1.427.485-3.312-.088-4.7-.42-1.014-2.91-1.626-7.292-1.51-.074 0-4.164.016-5.672.228-1.51.215-2.218 2.171-1.855 4.092zm-4.96-1.296a3.374 3.374 0 00-.381 1.132c-.417 2.546-1.207 5.274-3.41 6.861-1.41 1.016-3.201 1.378-4.914 1.554-2.171.22-4.366.09-6.49-.393-.776-.177-1.547-.414-2.195-.865-.795-.55-1.353-1.388-1.72-2.28-.158-.377-1.232-4.844-1.109-4.844h-.297a.6.6 0 01-.601-.55c-.076-1.034-.208-3.203.02-3.864.305-.878 2.261-1.687 6.747-2.022 4.489-.338 10.358-.169 11.672.403 1.313.57 6.288.57 7.599 0 1.313-.572 7.185-.74 11.671-.403 4.487.335 6.444 1.144 6.747 2.021.23.662.099 2.831.02 3.865a.598.598 0 01-.598.55h-.3c.126 0-.952 4.466-1.105 4.845-.37.892-.928 1.729-1.724 2.279-.648.451-1.42.688-2.193.865a20.122 20.122 0 01-6.49.392c-1.712-.176-3.506-.536-4.916-1.553-2.203-1.587-2.99-4.315-3.407-6.861a3.303 3.303 0 00-.383-1.132c-.492-.845-1.752-.845-2.244 0zm25.136 22.951c0-1.331-.424-2.455-1.272-3.372-.848-.918-1.948-1.378-3.3-1.378-1.353 0-2.458.46-3.316 1.378-.858.917-1.287 2.04-1.287 3.372 0 1.354.429 2.486 1.287 3.404.858.917 1.963 1.376 3.315 1.376 1.353 0 2.453-.46 3.301-1.377.848-.917 1.272-2.049 1.272-3.403zm-.212-14.731h4.27v22.99h-4.18v-2.027c-1.332 1.613-3.038 2.42-5.117 2.42-2.34 0-4.29-.822-5.843-2.465-1.555-1.644-2.332-3.706-2.332-6.187 0-2.46.782-4.518 2.347-6.17 1.564-1.655 3.507-2.481 5.828-2.481 1.999 0 3.674.776 5.027 2.329v-8.41zm8.206 22.99h4.269V20.166h-4.27v16.488zm2.15-23.566c-.748 0-1.374.248-1.879.742-.504.493-.757 1.114-.757 1.86s.253 1.371.757 1.876c.505.504 1.132.756 1.878.756.747 0 1.373-.251 1.877-.756s.757-1.13.757-1.876-.252-1.367-.757-1.86c-.504-.494-1.13-.742-1.877-.742zm30.277 7.08l-3.752 10.738-4.27-10.739h-4.936l7.209 16.305-.337.756c-.807 1.735-1.875 2.602-3.209 2.602-.646 0-1.353-.181-2.117-.544l-.73 3.569c.868.545 1.928.816 3.18.816 1.638 0 3.009-.508 4.118-1.527 1.11-1.018 2.069-2.576 2.879-4.673L112 20.167h-4.663zm-18.62-.576c0-.925.261-1.639.787-2.132.524-.494 1.282-.742 2.27-.742.747 0 1.635.232 2.667.696l1.39-3.267c-1.514-.806-3.078-1.21-4.692-1.21-1.979 0-3.589.565-4.83 1.694-1.242 1.13-1.863 2.753-1.863 4.87v.666h-2.543v3.57h2.544v12.917h4.27V23.736h5.116v-3.57h-5.116v-.575.001zm-53.594 7.139c-.201-1.068-.665-1.91-1.393-2.526-.727-.614-1.634-.922-2.724-.922-1.07 0-1.983.308-2.74.922-.758.616-1.268 1.458-1.53 2.527h8.387v-.001zm1.818-4.764c1.553 1.482 2.33 3.504 2.33 6.065 0 .585-.05 1.21-.15 1.875H26.735c.605 2.34 2.21 3.51 4.814 3.51.889 0 1.822-.154 2.801-.47.98-.309 1.822-.71 2.528-1.194l1.696 2.995c-2.08 1.512-4.482 2.27-7.206 2.27-2.907 0-5.128-.839-6.662-2.513-1.533-1.673-2.301-3.707-2.301-6.11 0-2.5.798-4.568 2.392-6.2 1.595-1.635 3.663-2.451 6.208-2.451 2.402 0 4.38.74 5.934 2.223zm9.357.408v-2.208h-4.09v16.487h4.27v-7.837c0-1.713.368-2.974 1.105-3.78.737-.805 1.713-1.21 2.924-1.21.604 0 1.259.11 1.965.332l.364-4.083a5.79 5.79 0 00-1.998-.363c-2.019 0-3.532.89-4.539 2.661v.001zm-31.643-8.077h4.42v22.356H16.02L4.421 22.948v13.705H0V14.297h2.846l11.81 13.826V14.297v.001zM4.945 49.84l3.489-8.504H6.498l-2.234 5.879-2.245-5.88H.049l3.536 8.504h1.359zm5.187-6.974a.973.973 0 00.714-.288.973.973 0 00.288-.713.953.953 0 00-.288-.708.98.98 0 00-.714-.282.982.982 0 00-.715.282.952.952 0 00-.287.708.97.97 0 00.288.713c.191.191.43.288.715.288h-.001zm.806 6.973v-6.271H9.314v6.271h1.624zm4.278.149c.791 0 1.44-.307 1.946-.92v.771h1.59v-8.746h-1.624v3.2c-.515-.591-1.152-.886-1.912-.886-.883 0-1.622.314-2.217.943-.595.63-.893 1.412-.893 2.347 0 .944.296 1.728.887 2.353.592.625 1.332.938 2.223.938zm.254-1.472c-.515 0-.937-.173-1.269-.518-.322-.353-.482-.786-.482-1.301 0-.506.163-.933.49-1.282.326-.35.746-.524 1.26-.524s.934.174 1.256.523c.322.35.483.777.483 1.283 0 .515-.161.945-.483 1.295-.322.349-.741.523-1.255.523zm7.894 1.46c1.037 0 1.95-.287 2.74-.862l-.644-1.14c-.27.185-.59.336-.962.455a3.509 3.509 0 01-1.066.178c-.99 0-1.6-.444-1.831-1.334h4.71c.039-.253.058-.492.058-.714 0-.974-.295-1.743-.886-2.306-.591-.565-1.344-.846-2.258-.846-.966 0-1.754.31-2.361.932-.606.62-.91 1.408-.91 2.358 0 .913.292 1.688.876 2.325.584.636 1.429.955 2.534.955zm1.428-3.91h-3.19c.1-.408.294-.729.581-.962a1.598 1.598 0 011.042-.352c.415 0 .76.118 1.037.352.276.233.453.553.53.96v.002zM30.567 50c.983 0 1.79-.319 2.418-.955.63-.637.945-1.419.945-2.348 0-.92-.315-1.7-.945-2.34-.629-.641-1.435-.962-2.418-.962-.983 0-1.79.32-2.419.961-.63.64-.945 1.42-.945 2.341 0 .929.315 1.711.945 2.348.63.636 1.436.955 2.419.955zm0-1.508c-.491 0-.906-.172-1.244-.517a1.803 1.803 0 01-.495-1.277c0-.499.167-.921.501-1.267a1.655 1.655 0 011.238-.517c.491 0 .904.172 1.238.518.334.345.501.767.501 1.265 0 .499-.167.923-.501 1.272a1.646 1.646 0 01-1.238.523zm10.157 1.485c.929 0 1.68-.241 2.257-.725.576-.483.863-1.105.863-1.864 0-.943-.483-1.65-1.45-2.118a25.078 25.078 0 00-1.031-.454 39.091 39.091 0 01-.847-.362c-.46-.23-.691-.51-.691-.84a.71.71 0 01.294-.593c.196-.15.463-.224.8-.224.315 0 .645.07.991.207.345.138.637.334.876.587l.909-1.243c-.76-.767-1.693-1.151-2.798-1.151-.853 0-1.55.236-2.09.708a2.26 2.26 0 00-.813 1.777c0 .898.45 1.604 1.348 2.118.23.13.565.282 1.007.455.442.172.72.285.836.338.513.247.77.541.77.887a.778.778 0 01-.345.656c-.23.169-.522.253-.875.253-.437 0-.854-.101-1.25-.306a2.833 2.833 0 01-1.008-.88L37.5 48.39c.352.513.813.907 1.382 1.18a4.22 4.22 0 001.843.408zm7.353.023c.983 0 1.789-.319 2.418-.955.63-.637.945-1.419.945-2.348 0-.92-.315-1.7-.945-2.34-.63-.641-1.435-.962-2.418-.962-.983 0-1.789.32-2.419.961-.63.64-.944 1.42-.944 2.341 0 .929.314 1.711.944 2.348.63.636 1.436.955 2.419.955zm0-1.508c-.492 0-.906-.172-1.244-.517a1.804 1.804 0 01-.496-1.277c0-.499.167-.921.502-1.267a1.655 1.655 0 011.238-.517c.49 0 .903.172 1.237.518.334.345.502.767.502 1.265 0 .499-.168.923-.502 1.272a1.646 1.646 0 01-1.237.523zm6.178 1.347v-8.746H52.63v8.746h1.625zm4.312.149c.9 0 1.604-.245 2.114-.736.51-.49.765-1.178.765-2.06v-3.624h-1.624v3.625c0 .398-.11.717-.334.955-.221.237-.53.356-.92.356-.393 0-.7-.119-.922-.357-.222-.237-.334-.556-.334-.955v-3.624h-1.624v3.625c0 .882.258 1.568.772 2.059.513.49 1.217.736 2.107.736zm7.008 0c.722 0 1.34-.172 1.854-.518l-.483-1.277c-.385.215-.734.322-1.049.322-.59 0-.887-.368-.887-1.104v-2.486h2.074v-1.357H65.01v-2.222h-1.612v2.22h-1.036v1.358h1.024v2.59c0 .813.185 1.427.554 1.846.368.418.913.627 1.635.627zm3.517-7.122a.975.975 0 00.715-.288.973.973 0 00.288-.713.953.953 0 00-.288-.708.982.982 0 00-.715-.282.982.982 0 00-.714.282.952.952 0 00-.287.708.97.97 0 00.288.713c.191.191.43.288.715.288h-.001zm.807 6.973v-6.271h-1.623v6.271H69.9h-.001zM74.43 50c.983 0 1.789-.319 2.419-.955.629-.637.944-1.419.944-2.348 0-.92-.315-1.7-.944-2.34-.63-.641-1.436-.962-2.419-.962-.983 0-1.789.32-2.419.961-.629.64-.944 1.42-.944 2.341 0 .929.315 1.711.944 2.348.63.636 1.436.955 2.42.955zm0-1.508a1.67 1.67 0 01-1.243-.517 1.804 1.804 0 01-.496-1.277c0-.499.168-.921.5-1.267a1.655 1.655 0 011.239-.517c.492 0 .904.172 1.237.518.335.345.503.767.503 1.265 0 .499-.168.923-.502 1.272a1.645 1.645 0 01-1.238.523zm6.178 1.347v-3.36c0-.468.133-.85.397-1.145.265-.295.613-.443 1.043-.443.4 0 .72.134.961.402.242.269.362.653.362 1.152v3.394h1.625v-3.832c0-.836-.238-1.48-.714-1.933-.476-.453-1.055-.68-1.739-.68a2.4 2.4 0 00-1.191.294c-.35.197-.61.447-.778.755v-.875h-1.59v6.271h1.624zm7.93.161c.751 0 1.356-.19 1.813-.57.457-.38.685-.86.685-1.444 0-.69-.352-1.22-1.06-1.589-.175-.09-.679-.294-1.508-.609-.368-.123-.553-.314-.553-.575 0-.146.066-.27.196-.374.13-.104.304-.155.518-.155.523 0 1.002.207 1.44.621l.806-1.047c-.575-.599-1.308-.897-2.2-.897-.706 0-1.274.176-1.705.529-.43.353-.644.805-.644 1.357 0 .737.36 1.277 1.082 1.623.14.07.408.178.806.328.4.15.65.247.75.293.299.138.448.319.448.541 0 .176-.083.322-.248.438-.165.114-.37.172-.615.172-.316 0-.628-.079-.939-.236a2.484 2.484 0 01-.8-.638l-.864 1.023c.637.806 1.5 1.209 2.591 1.209z" fill="#000"/></svg>