<svg width="18" height="23" fill="none" xmlns="http://www.w3.org/2000/svg"><path fill-rule="evenodd" clip-rule="evenodd" d="M15.362 0h-8.96c-.485 0-.928.263-1.145.678l-5.12 9.814-.059.13c-.3.783.302 1.645 1.204 1.645h3.271l-3.19 8.155c-.472 1.206 1.066 2.204 2.06 1.339l14.08-12.267.1-.098c.718-.768.16-2.036-.961-2.036h-3.05l2.915-5.585C16.932.96 16.313 0 15.362 0zm-2.073 2.453L10.377 8.04l-.059.129c-.3.784.302 1.645 1.204 1.645h1.808l-7.71 6.718 1.98-5.06.044-.134c.2-.76-.398-1.524-1.242-1.524h-3.05l3.84-7.36h6.097z" fill="#32404D"/></svg>