<svg width="22" height="22" fill="none" xmlns="http://www.w3.org/2000/svg"><path fill-rule="evenodd" clip-rule="evenodd" d="M18.333 0H3.667A3.667 3.667 0 000 3.667v11l.006.215a3.668 3.668 0 003.66 3.451h3.16l3.31 3.309.115.102c.48.373 1.173.339 1.613-.102l3.309-3.309h3.16A3.667 3.667 0 0022 14.667v-11A3.667 3.667 0 0018.333 0zM3.667 2.444h14.666c.675 0 1.223.548 1.223 1.223v11c0 .674-.548 1.222-1.223 1.222h-3.666l-.161.01a1.23 1.23 0 00-.704.348L11 19.048l-2.802-2.801a1.22 1.22 0 00-.865-.358H3.667a1.223 1.223 0 01-1.223-1.222v-11c0-.675.548-1.223 1.223-1.223z" fill="#32404D"/></svg>