<svg width="24" height="21" fill="none" xmlns="http://www.w3.org/2000/svg"><path d="M19.688 0c2.096 0 3.81 1.64 3.93 3.706l.007.232v13.124a3.938 3.938 0 01-3.706 3.931l-.232.007H3.938a3.938 3.938 0 01-3.93-3.706L0 17.062V3.938C0 1.842 1.64.128 3.706.008L3.938 0h15.75zm0 2.625H3.938c-.673 0-1.228.507-1.304 1.16l-.009.152v13.126c0 .672.507 1.227 1.16 1.303l.152.009h15.75c.673 0 1.228-.507 1.304-1.16l.009-.152V15.75h-7.09a4.722 4.722 0 01-4.716-4.472l-.007-.25V9.972a4.722 4.722 0 014.472-4.715l.25-.007H21V3.937c0-.672-.507-1.227-1.16-1.303l-.152-.009zm1.31 5.25H13.91c-1.03 0-1.886.742-2.063 1.72l-.025.186-.009.191v1.056c0 1.094.838 1.992 1.907 2.088l.19.009H21v-5.25h-.002zm-6.56 1.313a1.311 1.311 0 11-.001 2.625 1.312 1.312 0 11.001-2.626v.001z" fill="#32404D"/></svg>