<svg xmlns="http://www.w3.org/2000/svg" viewBox="0 0 122.88 122.88"><path d="M84.93 4.66C77.69 1.66 69.75 0 61.44 0 44.48 0 29.11 6.88 18 18A61.256 61.256 0 004.66 37.95C1.66 45.19 0 53.13 0 61.44c0 16.96 6.88 32.33 18 43.44a61.627 61.627 0 0019.95 13.34c7.24 3 15.18 4.66 23.49 4.66 8.31 0 16.25-1.66 23.49-4.66a61.627 61.627 0 0033.29-33.29c3-7.24 4.66-15.18 4.66-23.49 0-8.31-1.66-16.25-4.66-23.49A61.52 61.52 0 00104.88 18 61.362 61.362 0 0084.93 4.66zM72.88 47.13c2.48-2.52 2.45-6.58-.08-9.05s-6.58-2.45-9.05.08L45.08 57.13a6.404 6.404 0 000 8.98L63.4 84.73a6.407 6.407 0 009.05.08 6.407 6.407 0 00.08-9.05l-13.9-14.13 14.25-14.5zm7.14-30.58A48.708 48.708 0 0195.78 27.1c4.48 4.48 8.09 9.83 10.55 15.76 2.37 5.71 3.67 11.99 3.67 18.58 0 6.59-1.31 12.86-3.67 18.58a48.708 48.708 0 01-10.55 15.76 48.708 48.708 0 01-15.76 10.55C74.3 108.69 68.03 110 61.44 110s-12.86-1.31-18.58-3.67A48.708 48.708 0 0127.1 95.78a48.601 48.601 0 01-10.55-15.76c-2.37-5.71-3.67-11.99-3.67-18.58 0-6.59 1.31-12.86 3.67-18.58A48.708 48.708 0 0127.1 27.1c4.48-4.48 9.83-8.09 15.76-10.55 5.71-2.37 11.99-3.67 18.58-3.67 6.59 0 12.86 1.31 18.58 3.67z"/></svg>