<svg xmlns="http://www.w3.org/2000/svg" viewBox="0 0 122.88 122.88"><path d="M37.95 4.66C45.19 1.66 53.13 0 61.44 0c16.96 0 32.33 6.88 43.44 18a61.627 61.627 0 0113.34 19.95c3 7.24 4.66 15.18 4.66 23.49 0 16.96-6.88 32.33-18 43.44a61.627 61.627 0 01-19.95 13.34c-7.24 3-15.18 4.66-23.49 4.66-8.31 0-16.25-1.66-23.49-4.66A61.52 61.52 0 0118 104.88 61.362 61.362 0 014.66 84.93C1.66 77.69 0 69.75 0 61.44c0-8.31 1.66-16.25 4.66-23.49A61.362 61.362 0 0118 18 61.256 61.256 0 0137.95 4.66zM50 47.13c-2.48-2.52-2.45-6.58.08-9.05 2.52-2.48 6.58-2.45 9.05.08L77.8 57.13a6.404 6.404 0 010 8.98L59.49 84.72a6.407 6.407 0 01-9.05.08 6.407 6.407 0 01-.08-9.05l13.9-14.13L50 47.13zm-7.14-30.58A48.708 48.708 0 0027.1 27.1a48.708 48.708 0 00-10.55 15.76c-2.37 5.71-3.67 11.99-3.67 18.58 0 6.59 1.31 12.86 3.67 18.58A48.708 48.708 0 0027.1 95.78c4.48 4.48 9.83 8.09 15.76 10.55 5.72 2.37 11.99 3.67 18.58 3.67 6.59 0 12.86-1.31 18.58-3.67a48.708 48.708 0 0015.76-10.55c4.48-4.48 8.09-9.82 10.55-15.76 2.37-5.71 3.67-11.99 3.67-18.58 0-6.59-1.31-12.86-3.67-18.58A48.708 48.708 0 0095.78 27.1a48.708 48.708 0 00-15.76-10.55c-5.71-2.37-11.99-3.67-18.58-3.67s-12.86 1.31-18.58 3.67z"/></svg>