<svg width="112" height="50" viewBox="0 0 112 50" fill="none" xmlns="http://www.w3.org/2000/svg">
<path d="M37.2082 2.64848C35.6986 2.43733 31.6105 2.41923 31.535 2.41923C27.1551 2.3036 24.6612 2.91594 24.2435 3.92948C23.6699 5.31806 23.9024 7.20335 24.157 8.63014C24.4579 10.3194 25.1161 12.0619 26.8643 12.7064C27.3997 12.9055 27.9723 12.9688 28.543 13.0141C29.961 13.1277 31.3911 13.1377 32.8122 13.0121C33.4684 12.9537 34.1266 12.8683 34.7546 12.6692C37.4447 11.8196 38.5749 9.30583 39.062 6.73982C39.4253 4.81934 38.7168 2.86265 37.2072 2.64848H37.2082ZM46.74 6.73982C47.2271 9.30583 48.3573 11.8196 51.0474 12.6692C51.6754 12.8683 52.3336 12.9537 52.9898 13.0111C54.4109 13.1377 55.841 13.1277 57.262 13.0141C57.8297 12.9688 58.4023 12.9055 58.9377 12.7064C60.6859 12.0619 61.3471 10.3194 61.647 8.63014C61.8996 7.20335 62.1321 5.31806 61.5594 3.92948C61.1398 2.91594 58.6499 2.3036 54.2669 2.41923C54.1935 2.41923 50.1034 2.43633 48.5948 2.64848C47.0852 2.86265 46.3766 4.81934 46.74 6.73982ZM41.7793 5.44374C41.6183 5.72629 41.4774 6.09731 41.3989 6.57593C40.9823 9.12183 40.1922 11.8497 37.9892 13.4374C36.5792 14.4529 34.7878 14.8149 33.0748 14.9909C30.904 15.2101 28.709 15.0814 26.5845 14.5977C25.8095 14.4208 25.0376 14.1845 24.3905 13.733C23.5954 13.183 23.0369 12.3454 22.6695 11.4536C22.5125 11.0755 21.4377 6.60911 21.5615 6.60911H21.2636C20.9475 6.60911 20.6879 6.36879 20.6627 6.0591C20.5872 5.02546 20.4554 2.85561 20.6828 2.19501C20.9878 1.31722 22.9443 0.507796 27.4299 0.172968C31.9185 -0.164876 37.7879 0.00404624 39.1023 0.57617C40.4146 1.14628 45.3904 1.14628 46.7007 0.57617C48.0141 0.00404624 53.8865 -0.164876 58.3721 0.172968C62.8587 0.507796 64.8162 1.31722 65.1191 2.194C65.3486 2.85561 65.2178 5.02546 65.1393 6.0591C65.1171 6.36879 64.8544 6.60911 64.5414 6.60911H64.2415C64.3673 6.60911 63.2895 11.0755 63.1355 11.4536C62.7651 12.3464 62.2076 13.183 61.4125 13.733C60.7644 14.1845 59.9924 14.4208 59.2195 14.5977C57.093 15.0814 54.898 15.2101 52.7281 14.9899C51.0172 14.8139 49.2228 14.4539 47.8128 13.4374C45.6098 11.8497 44.8227 9.12183 44.4061 6.57593C44.3276 6.09731 44.1867 5.72629 44.0226 5.44374C43.5305 4.59913 42.2715 4.59913 41.7793 5.44374ZM66.9156 28.395C66.9156 27.0638 66.4919 25.9396 65.6445 25.0226C64.7961 24.1046 63.6961 23.6451 62.3434 23.6451C60.9908 23.6451 59.8858 24.1046 59.0283 25.0226C58.1698 25.9396 57.7411 27.0638 57.7411 28.395C57.7411 29.7494 58.1698 30.8806 59.0283 31.7986C59.8858 32.7156 60.9908 33.1751 62.3434 33.1751C63.6961 33.1751 64.7961 32.7156 65.6445 31.7976C66.4919 30.8806 66.9156 29.7494 66.9156 28.395ZM66.7042 13.6636H70.9734V36.6541H66.7948V34.6271C65.4623 36.2399 63.7564 37.0473 61.6772 37.0473C59.3363 37.0473 57.3878 36.2248 55.8339 34.5818C54.279 32.9378 53.5021 30.8756 53.5021 28.395C53.5021 25.9346 54.2841 23.8774 55.849 22.2244C57.413 20.5703 59.3564 19.7438 61.6772 19.7438C63.6759 19.7438 65.3506 20.5201 66.7042 22.0725V13.6636ZM74.9095 36.6541H79.1788V20.1661H74.9085V36.6531L74.9095 36.6541ZM77.0592 13.0885C76.3125 13.0885 75.6865 13.3358 75.1813 13.8295C74.6771 14.3232 74.4244 14.9436 74.4244 15.6897C74.4244 16.4358 74.6771 17.0612 75.1813 17.5659C75.6865 18.0697 76.3125 18.3221 77.0592 18.3221C77.806 18.3221 78.432 18.0707 78.9362 17.5659C79.4404 17.0612 79.693 16.4358 79.693 15.6897C79.693 14.9436 79.4414 14.3232 78.9362 13.8295C78.432 13.3358 77.806 13.0885 77.0592 13.0885ZM107.337 20.1671L103.585 30.9058L99.3141 20.1671H94.3787L101.588 36.4721L101.251 37.2283C100.444 38.9627 99.3765 39.8305 98.042 39.8305C97.3959 39.8305 96.6894 39.6485 95.9255 39.2855L95.1959 42.855C96.0634 43.4 97.1232 43.6714 98.3751 43.6714C100.013 43.6714 101.384 43.1627 102.493 42.1441C103.603 41.1255 104.562 39.568 105.372 37.4706L112 20.1671H107.337ZM88.7166 19.592C88.7166 18.6669 88.9782 17.953 89.5036 17.4604C90.0279 16.9656 90.7858 16.7183 91.7741 16.7183C92.5208 16.7183 93.4095 16.9496 94.4411 17.4141L95.8319 14.1473C94.3173 13.3409 92.7533 12.9377 91.139 12.9377C89.1604 12.9377 87.5501 13.5017 86.3082 14.6309C85.0673 15.7611 84.4463 17.3839 84.4463 19.5015V20.1671H81.9031V23.7366H84.4473V36.6541H88.7166V23.7356H93.8332V20.1661H88.7166V19.591V19.592ZM35.1229 26.731C34.9216 25.6631 34.4577 24.8205 33.73 24.2052C33.0034 23.5908 32.0956 23.2831 31.0057 23.2831C29.9358 23.2831 29.023 23.5908 28.2652 24.2052C27.5084 24.8205 26.9981 25.6631 26.7354 26.732H35.1229V26.731ZM36.9405 21.967C38.4944 23.449 39.2714 25.4711 39.2714 28.0321C39.2714 28.6173 39.221 29.2427 39.1204 29.9073H26.7364C27.3413 32.2471 28.9465 33.4165 31.5501 33.4165C32.4388 33.4165 33.3717 33.2626 34.351 32.9479C35.3302 32.6382 36.1726 32.237 36.8791 31.7534L38.5749 34.7477C36.4957 36.26 34.0933 37.0171 31.369 37.0171C28.4624 37.0171 26.2413 36.1795 24.7075 34.5054C23.1737 32.8323 22.4058 30.7982 22.4058 28.395C22.4058 25.8944 23.2039 23.8271 24.7981 22.1942C26.3933 20.5603 28.4614 19.7438 31.0057 19.7438C33.408 19.7438 35.3856 20.4849 36.9405 21.967ZM46.2981 22.3752V20.1671H42.2081V36.6541H46.4773V28.8174C46.4773 27.104 46.8456 25.8431 47.5833 25.0367C48.32 24.2323 49.2963 23.8261 50.507 23.8261C51.1108 23.8261 51.766 23.9367 52.4725 24.1589L52.8358 20.0756C52.1706 19.8333 51.5074 19.7126 50.8381 19.7126C48.8192 19.7126 47.3056 20.6025 46.2992 22.3742L46.2981 22.3752ZM14.6554 14.2981H19.0756V36.6541H16.0201L4.42119 22.9483V36.6531H0V14.2971H2.84614L14.6554 28.1226V14.2971V14.2981Z" fill="black"/>
<path d="M4.94452 49.8391L8.43377 41.3357H6.49843L4.26419 47.2148L2.01887 41.3357H0.0493164L3.58486 49.8391H4.94352H4.94452ZM10.1316 42.8661C10.4164 42.8661 10.6539 42.7695 10.8461 42.5785C11.0374 42.3864 11.134 42.1481 11.134 41.8646C11.134 41.581 11.0374 41.3447 10.8461 41.1567C10.6539 40.9687 10.4164 40.8752 10.1316 40.8752C9.84778 40.8752 9.60926 40.9687 9.41704 41.1567C9.22582 41.3447 9.13021 41.581 9.13021 41.8646C9.13021 42.1481 9.22582 42.3864 9.41804 42.5785C9.60926 42.7695 9.84778 42.8661 10.1326 42.8661H10.1316ZM10.9377 49.8391V43.5679H9.31438V49.8391H10.9377ZM15.216 49.9879C16.007 49.9879 16.6552 49.6813 17.1624 49.0679V49.8391H18.7525V41.0934H17.1282V44.2928C16.6129 43.7016 15.9758 43.407 15.216 43.407C14.3334 43.407 13.5937 43.7207 12.9989 44.3502C12.4041 44.9796 12.1062 45.7619 12.1062 46.697C12.1062 47.6411 12.4021 48.4254 12.9928 49.0498C13.5846 49.6752 14.3253 49.9879 15.216 49.9879ZM15.4696 48.5159C14.9553 48.5159 14.5326 48.343 14.2015 47.9981C13.8795 47.6451 13.7185 47.2118 13.7185 46.697C13.7185 46.1912 13.8815 45.7639 14.2086 45.415C14.5347 45.0651 14.9553 44.8911 15.4696 44.8911C15.9829 44.8911 16.4026 45.0651 16.7246 45.414C17.0467 45.7639 17.2077 46.1912 17.2077 46.697C17.2077 47.2118 17.0467 47.6421 16.7246 47.992C16.4026 48.3409 15.9839 48.5149 15.4696 48.5149V48.5159ZM23.3639 49.9769C24.4006 49.9769 25.3134 49.6893 26.1044 49.1142L25.4603 47.9749C25.1906 48.1589 24.8706 48.3098 24.4982 48.4294C24.1258 48.5481 23.7705 48.6074 23.4324 48.6074C22.4421 48.6074 21.8322 48.163 21.6007 47.2731H26.3117C26.35 47.0197 26.3691 46.7814 26.3691 46.5592C26.3691 45.5849 26.0742 44.8157 25.4835 44.2526C24.8917 43.6885 24.1389 43.407 23.2251 43.407C22.2589 43.407 21.4709 43.7177 20.864 44.3391C20.2581 44.9595 19.9542 45.7468 19.9542 46.697C19.9542 47.61 20.2461 48.3852 20.8298 49.0217C21.4135 49.6581 22.2589 49.9769 23.3639 49.9769ZM24.792 46.0655H21.6017C21.7013 45.6583 21.8956 45.3375 22.1834 45.1043C22.4713 44.87 22.8185 44.7523 23.2251 44.7523C23.6397 44.7523 23.9859 44.87 24.2617 45.1043C24.5384 45.3375 24.7146 45.6573 24.792 46.0645V46.0655ZM30.5669 50C31.5501 50 32.3563 49.6813 32.9853 49.0448C33.6153 48.4083 33.9303 47.626 33.9303 46.697C33.9303 45.7769 33.6153 44.9967 32.9853 44.3562C32.3563 43.7157 31.5501 43.3949 30.5669 43.3949C29.5836 43.3949 28.7775 43.7157 28.1484 44.3562C27.5184 44.9967 27.2034 45.7769 27.2034 46.697C27.2034 47.626 27.5184 48.4083 28.1484 49.0448C28.7775 49.6813 29.5836 50 30.5669 50ZM30.5669 48.4918C30.0757 48.4918 29.6611 48.3198 29.3229 47.9749C28.9928 47.622 28.8278 47.1957 28.8278 46.698C28.8278 46.1993 28.9948 45.7769 29.329 45.4311C29.6631 45.0862 30.0757 44.9142 30.5669 44.9142C31.058 44.9142 31.4706 45.0862 31.8048 45.4321C32.1389 45.7769 32.306 46.1993 32.306 46.697C32.306 47.1957 32.1389 47.62 31.8048 47.9689C31.4706 48.3178 31.058 48.4918 30.5669 48.4918ZM40.7236 49.9769C41.6525 49.9769 42.4043 49.7356 42.981 49.2519C43.5567 48.7693 43.8445 48.1469 43.8445 47.3877C43.8445 46.4446 43.3614 45.7387 42.3933 45.2702C42.1718 45.1636 41.8277 45.0118 41.3627 44.8157C40.8987 44.6206 40.6159 44.5 40.5163 44.4537C40.0554 44.2235 39.8249 43.9439 39.8249 43.6141C39.8249 43.3678 39.9235 43.1707 40.1188 43.0209C40.315 42.8711 40.5817 42.7967 40.9199 42.7967C41.2339 42.7967 41.564 42.8661 41.9102 43.0038C42.2554 43.1416 42.5472 43.3376 42.7858 43.591L43.6946 42.3482C42.9347 41.581 42.0018 41.1969 40.8967 41.1969C40.0443 41.1969 39.3468 41.4332 38.8064 41.9048C38.2649 42.3774 37.9942 42.9696 37.9942 43.6825C37.9942 44.5804 38.4431 45.2863 39.3418 45.8001C39.5723 45.9308 39.9074 46.0816 40.3492 46.2546C40.791 46.4275 41.0688 46.5401 41.1846 46.5934C41.6978 46.8397 41.9555 47.1344 41.9555 47.4802C41.9555 47.7487 41.8407 47.9669 41.6103 48.1358C41.3798 48.3047 41.0879 48.3892 40.7347 48.3892C40.2979 48.3892 39.8812 48.2877 39.4857 48.0835C39.0902 47.8804 38.7541 47.5868 38.4773 47.2037L37.4991 48.3892C37.8513 48.902 38.3122 49.2962 38.8809 49.5686C39.4495 49.8401 40.0634 49.9769 40.7236 49.9769ZM48.0765 50C49.0598 50 49.8659 49.6813 50.4949 49.0448C51.1249 48.4083 51.4399 47.626 51.4399 46.697C51.4399 45.7769 51.1249 44.9967 50.4949 44.3562C49.8659 43.7157 49.0598 43.3949 48.0765 43.3949C47.0942 43.3949 46.2881 43.7157 45.6581 44.3562C45.0281 44.9967 44.7141 45.7769 44.7141 46.697C44.7141 47.626 45.0281 48.4083 45.6581 49.0448C46.2881 49.6813 47.0942 50 48.0765 50ZM48.0765 48.4918C47.5854 48.4918 47.1707 48.3198 46.8326 47.9749C46.5025 47.622 46.3374 47.1957 46.3374 46.698C46.3374 46.1993 46.5045 45.7769 46.8386 45.4311C47.1727 45.0862 47.5854 44.9142 48.0765 44.9142C48.5676 44.9142 48.9802 45.0862 49.3144 45.4321C49.6485 45.7769 49.8156 46.1993 49.8156 46.697C49.8156 47.1957 49.6485 47.62 49.3144 47.9689C48.9802 48.3178 48.5676 48.4918 48.0765 48.4918ZM54.2549 49.8391V41.0934H52.6305V49.8391H54.2549ZM58.5674 49.9879C59.4661 49.9879 60.1706 49.7426 60.6808 49.2519C61.1911 48.7612 61.4457 48.0745 61.4457 47.1927V43.5679H59.8224V47.1927C59.8224 47.5908 59.7117 47.9096 59.4882 48.1479C59.2668 48.3852 58.9589 48.5038 58.5674 48.5038C58.1749 48.5038 57.8689 48.3852 57.6455 48.1469C57.4241 47.9096 57.3124 47.5908 57.3124 47.1917V43.5679H55.688V47.1927C55.688 48.0745 55.9457 48.7612 56.4599 49.2519C56.9732 49.7426 57.6767 49.9879 58.5674 49.9879ZM65.575 49.9879C66.2966 49.9879 66.9146 49.816 67.4289 49.4701L66.9458 48.1931C66.5613 48.4083 66.2121 48.5149 65.8971 48.5149C65.3063 48.5149 65.0104 48.1469 65.0104 47.4109V44.9253H67.0837V43.5679H65.0104V41.3458H63.3982V43.5669H62.3616V44.9243H63.3861V47.5134C63.3861 48.3269 63.5713 48.9412 63.9396 49.3605C64.308 49.7778 64.8534 49.9869 65.575 49.9869V49.9879ZM69.0925 42.8661C69.3763 42.8661 69.6148 42.7695 69.807 42.5785C69.9982 42.3864 70.0949 42.1481 70.0949 41.8646C70.0949 41.581 69.9982 41.3447 69.807 41.1567C69.6148 40.9687 69.3763 40.8752 69.0925 40.8752C68.8087 40.8752 68.5701 40.9687 68.3779 41.1567C68.1867 41.3447 68.0911 41.581 68.0911 41.8646C68.0911 42.1481 68.1867 42.3864 68.3789 42.5785C68.5701 42.7695 68.8087 42.8661 69.0935 42.8661H69.0925ZM69.8986 49.8391V43.5679H68.2763V49.8391H69.8996H69.8986ZM74.4305 50C75.4128 50 76.2189 49.6813 76.8489 49.0448C77.4779 48.4083 77.7929 47.626 77.7929 46.697C77.7929 45.7769 77.4779 44.9967 76.8489 44.3562C76.2189 43.7157 75.4128 43.3949 74.4305 43.3949C73.4472 43.3949 72.6411 43.7157 72.0111 44.3562C71.3821 44.9967 71.0671 45.7769 71.0671 46.697C71.0671 47.626 71.3821 48.4083 72.0111 49.0448C72.6411 49.6813 73.4472 50 74.4305 50ZM74.4305 48.4918C73.9384 48.4918 73.5247 48.3198 73.1866 47.9749C72.8565 47.622 72.6914 47.1957 72.6914 46.698C72.6914 46.1993 72.8585 45.7769 73.1916 45.4311C73.5257 45.0862 73.9384 44.9142 74.4295 44.9142C74.9216 44.9142 75.3343 45.0862 75.6674 45.4321C76.0025 45.7769 76.1696 46.1993 76.1696 46.697C76.1696 47.1957 76.0025 47.62 75.6684 47.9689C75.3343 48.3178 74.9216 48.4918 74.4305 48.4918ZM80.6079 49.8391V46.4788C80.6079 46.0112 80.7407 45.6291 81.0054 45.3335C81.2701 45.0389 81.6183 44.8911 82.0481 44.8911C82.4476 44.8911 82.7676 45.0248 83.0092 45.2933C83.2507 45.5618 83.3715 45.9459 83.3715 46.4446V49.8391H84.9958V46.0072C84.9958 45.1706 84.7583 44.5261 84.2823 44.0736C83.8063 43.6212 83.2266 43.3949 82.5432 43.3949C82.0984 43.3949 81.7008 43.4925 81.3516 43.6885C81.0014 43.8846 80.7427 44.135 80.5737 44.4427V43.5679H78.9835V49.8391H80.6079ZM88.5374 50C89.2892 50 89.8941 49.81 90.351 49.4299C90.8079 49.0508 91.0364 48.5692 91.0364 47.986C91.0364 47.2962 90.6841 46.7663 89.9766 46.3973C89.8005 46.3068 89.2973 46.1027 88.468 45.788C88.0996 45.6653 87.9145 45.4743 87.9145 45.2129C87.9145 45.0671 87.9809 44.9424 88.1107 44.8388C88.2415 44.7353 88.4146 44.684 88.629 44.684C89.1524 44.684 89.6314 44.8911 90.0682 45.3054L90.8753 44.2576C90.2997 43.6594 89.567 43.3608 88.6753 43.3608C87.9688 43.3608 87.4012 43.5367 86.9704 43.8896C86.5407 44.2426 86.3263 44.695 86.3263 45.2471C86.3263 45.9841 86.6866 46.524 87.4082 46.8699C87.5471 46.9393 87.8158 47.0479 88.2144 47.1977C88.6139 47.3475 88.8635 47.445 88.9631 47.4913C89.263 47.6291 89.412 47.81 89.412 48.0323C89.412 48.2082 89.3295 48.354 89.1644 48.4696C88.9994 48.5843 88.7941 48.6416 88.5485 48.6416C88.2335 48.6416 87.9215 48.5632 87.6105 48.4063C87.2985 48.2484 87.0318 48.0363 86.8094 47.7678L85.9459 48.7914C86.583 49.5968 87.4465 50 88.5374 50Z" fill="black"/>
</svg>
