<svg width="18" height="23" viewBox="0 0 18 23" fill="none" xmlns="http://www.w3.org/2000/svg">
<path fill-rule="evenodd" clip-rule="evenodd" d="M15.362 0H6.402C5.917 0 5.474 0.262584 5.257 0.6785L0.136999 10.4918L0.0779995 10.6212C-0.222001 11.4051 0.379999 12.2667 1.282 12.2667H4.553L1.363 20.4221C0.891 21.6277 2.429 22.6263 3.423 21.7609L17.503 9.49421L17.603 9.39646C18.321 8.62788 17.763 7.36 16.642 7.36H13.592L16.507 1.77483C16.932 0.96025 16.313 0 15.362 0ZM13.289 2.45333L10.377 8.0385L10.318 8.16788C10.018 8.95179 10.62 9.81333 11.522 9.81333H13.33L5.62 16.5312L7.6 11.4712L7.644 11.3371C7.844 10.5762 7.246 9.81333 6.402 9.81333H3.352L7.192 2.45333H13.289Z" fill="#32404D"/>
</svg>
